<?xml version="1.0" encoding="iso-8859-1"?>
<!-- Generator: Adobe Illustrator 17.1.0, SVG Export Plug-In . SVG Version: 6.00 Build 0)  -->
<!DOCTYPE svg PUBLIC "-//W3C//DTD SVG 1.1//EN" "http://www.w3.org/Graphics/SVG/1.1/DTD/svg11.dtd">
<svg version="1.1" id="Capa_1" xmlns="http://www.w3.org/2000/svg" xmlns:xlink="http://www.w3.org/1999/xlink" x="0px" y="0px"
	 viewBox="0 0 218.211 218.211" style="enable-background:new 0 0 218.211 218.211;" xml:space="preserve">
<path d="M213.795,107.462l-23.84-2.805l-8.153-16.307c-0.847-1.693-2.578-2.764-4.472-2.764h-23.089c-2.762,0-5,2.238-5,5v39.292
	h-9.833V70.581c0-9.004-7.325-16.329-16.329-16.329H16.329C7.325,54.252,0,61.577,0,70.581v65.507c0,2.762,2.238,5,5,5h3.667v3.164
	c0,2.762,2.238,5,5,5h7.304c1.144,8.293,8.259,14.707,16.862,14.707c4.696,0,8.955-1.91,12.04-4.994
	c3.085,3.083,7.344,4.994,12.041,4.994c8.602,0,15.718-6.414,16.861-14.707h75.466h19.605c1.144,8.293,8.259,14.707,16.861,14.707
	c8.603,0,15.719-6.414,16.862-14.707h5.642c2.762,0,5-2.238,5-5v-31.824C218.211,109.893,216.313,107.758,213.795,107.462z
	 M161.417,103.919v-7.667h11.18l4.293,7.667H161.417z"/>
<g>
</g>
<g>
</g>
<g>
</g>
<g>
</g>
<g>
</g>
<g>
</g>
<g>
</g>
<g>
</g>
<g>
</g>
<g>
</g>
<g>
</g>
<g>
</g>
<g>
</g>
<g>
</g>
<g>
</g>
</svg>
